<?xml version="1.0" encoding="UTF-8" standalone="no"?>
<!-- Created with Inkscape (http://www.inkscape.org/) -->

<svg
   width="297mm"
   height="210mm"
   viewBox="0 0 1122.5197 793.70081"
   version="1.1"
   id="svg1"
   inkscape:version="1.4.2 (ebf0e940d0, 2025-05-08)"
   sodipodi:docname="svg.svg"
   xml:space="preserve"
   xmlns:inkscape="http://www.inkscape.org/namespaces/inkscape"
   xmlns:sodipodi="http://sodipodi.sourceforge.net/DTD/sodipodi-0.dtd"
   xmlns:xlink="http://www.w3.org/1999/xlink"
   xmlns="http://www.w3.org/2000/svg"
   xmlns:svg="http://www.w3.org/2000/svg"><sodipodi:namedview
     id="namedview1"
     pagecolor="#ffffff"
     bordercolor="#000000"
     borderopacity="0.25"
     inkscape:showpageshadow="2"
     inkscape:pageopacity="0.0"
     inkscape:pagecheckerboard="0"
     inkscape:deskcolor="#d1d1d1"
     inkscape:document-units="mm"
     inkscape:zoom="0.47838805"
     inkscape:cx="2320.2921"
     inkscape:cy="558.12431"
     inkscape:window-width="3440"
     inkscape:window-height="1361"
     inkscape:window-x="0"
     inkscape:window-y="282"
     inkscape:window-maximized="1"
     inkscape:current-layer="layer1" /><defs
     id="defs1"><linearGradient
       id="linearGradient42"
       inkscape:collect="always"><stop
         style="stop-color:#24b737;stop-opacity:1;"
         offset="0"
         id="stop42" /><stop
         style="stop-color:#135f1d;stop-opacity:1;"
         offset="1"
         id="stop43" /></linearGradient><linearGradient
       inkscape:collect="always"
       xlink:href="#linearGradient42"
       id="linearGradient83"
       gradientUnits="userSpaceOnUse"
       gradientTransform="rotate(90,754.19876,547.89185)"
       x1="19.979394"
       y1="258.06548"
       x2="480.52479"
       y2="258.06548" /><linearGradient
       inkscape:collect="always"
       xlink:href="#linearGradient42"
       id="linearGradient84"
       gradientUnits="userSpaceOnUse"
       gradientTransform="matrix(-0.75612908,-0.75612908,-0.75612908,0.75612908,1550.4194,430.5981)"
       x1="19.979394"
       y1="258.06548"
       x2="480.52479"
       y2="258.06548" /><linearGradient
       inkscape:collect="always"
       xlink:href="#linearGradient42"
       id="linearGradient85"
       gradientUnits="userSpaceOnUse"
       gradientTransform="matrix(-0.75612908,0.75612908,-0.75612908,-0.75612908,1550.115,190.89483)"
       x1="19.979394"
       y1="258.06548"
       x2="480.52479"
       y2="258.06548" /><linearGradient
       inkscape:collect="always"
       xlink:href="#linearGradient42"
       id="linearGradient86"
       gradientUnits="userSpaceOnUse"
       gradientTransform="matrix(0.75612908,0.75612908,-0.75612908,0.75612908,918.20431,-200.38293)"
       x1="19.979394"
       y1="258.06548"
       x2="480.52479"
       y2="258.06548" /><linearGradient
       inkscape:collect="always"
       xlink:href="#linearGradient42"
       id="linearGradient87"
       gradientUnits="userSpaceOnUse"
       gradientTransform="matrix(0.75612908,-0.75612908,0.75612908,0.75612908,527.91694,430.59823)"
       x1="19.979394"
       y1="258.06548"
       x2="480.52479"
       y2="258.06548" /></defs><g
     inkscape:label="Layer 1"
     inkscape:groupmode="layer"
     id="layer1"><g
       id="g7"
       transform="matrix(1.1923864,0,0,1.1923864,1058.9286,241.77121)"><g
         id="g16"><g
           id="g8"
           transform="translate(-81.523778,-48.078125)"><g
             id="g51"
             style="stroke:#ad6100;stroke-width:11.7;stroke-dasharray:none;stroke-opacity:1;paint-order:stroke fill markers"
             transform="translate(-516.64431,-818.71523)"><path
               fill="#cedce7"
               d="m 299.772,479.3537 c 8.985,-1.1659 21.993,1.3407 29.804,5.6631 19.48,10.7799 31.372,33.6569 29.192,55.8452 -1.153,11.738 -4.028,22.79041 -9.595,33.30341 -2.466,-2.382 -6.6478,-5.7084 -9.3948,-7.8834 L 327.019,554.346 c 7.604,-17.5949 3.067,-40.3685 -17.425,-45.6387 -16.4,-4.2176 -35.113,3.4951 -47.568,13.9737 -18.31012,19.67336 -36.68974,38.45309 -55.986,57.101 -6.01,-8.343 -9.981,-13.409 -15.082,-22.656 6.19621,-5.93636 14.08546,-11.64413 32.607,-28.7491 22.384,-20.3337 43.836,-46.3459 76.207,-49.0232 z"
               id="path8"
               sodipodi:nodetypes="cccccccccccc"
               style="stroke:#ad6100;stroke-width:11.7;stroke-dasharray:none;stroke-opacity:1;paint-order:stroke fill markers" /><path
               fill="#cedce7"
               d="M 366.49046,634.93045 C 341.51236,605.6009 308.31274,588.61464 259.129,533.2725 c 7.14,-6.6073 10.203,-9.0369 18.528,-14.0338 30.17391,28.88481 64.37783,53.20374 93.945,82.7683"
               id="path16"
               sodipodi:nodetypes="cccc"
               style="stroke:#ad6100;stroke-width:11.7;stroke-dasharray:none;stroke-opacity:1;paint-order:stroke fill markers" /><path
               fill="#cedce7"
               d="m 146.43895,635.68982 30.2723,-30.88725 -16.2217,-19.41519 -19.88694,16.65419"
               id="path16-5"
               sodipodi:nodetypes="cccc"
               style="stroke:#ad6100;stroke-width:11.7;stroke-dasharray:none;stroke-opacity:1;paint-order:stroke fill markers" /><path
               fill="#cedce7"
               d="m 203.172,478.6013 c 14.969,-1.4213 35.698,7.3781 48.107,15.7389 -6.763,5.5845 -15.038,13.7122 -21.471,19.7756 -5.289,-2.6907 -10.745,-4.8146 -16.594,-5.8762 -16.927,-3.0727 -29.65,7.4878 -32.283,24.0081 -1.077,7.2137 -0.321,14.5823 2.198,21.4273 11.34171,31.41197 63.72206,76.59226 72.529,89.222 13.55585,-13.55184 36.92341,-37.79048 49.749,-55.522 4.809,4.809 11.349,9.792 16.682,15.042 1.165,1.151 2.345,2.399 3.494,3.577 -23.98565,33.47607 -52.66052,57.45524 -69.176,75.545 -5.49161,-4.9984 -81.77687,-74.97781 -99.873,-121.422 -1.958,-5.054 -3.228,-10.349 -3.775,-15.742 -1.774,-16.0389 2.494,-32.8958 12.722,-45.5131 9.399,-11.4606 22.947,-18.7429 37.691,-20.2606 z"
               id="path4"
               sodipodi:nodetypes="ccccccccccccccc"
               style="stroke:#ad6100;stroke-width:11.7;stroke-dasharray:none;stroke-opacity:1;paint-order:stroke fill markers" /></g><use
             x="0"
             y="0"
             xlink:href="#g51"
             id="use51"
             transform="rotate(27.730814,-259.2281,252.83451)" /><use
             x="0"
             y="0"
             xlink:href="#g51"
             id="use52"
             transform="rotate(56.055029,-259.16213,247.19761)" /><use
             x="0"
             y="0"
             xlink:href="#g51"
             id="use53"
             transform="rotate(82.52584,-263.25722,254.84064)" /><use
             x="0"
             y="0"
             xlink:href="#g51"
             id="use56"
             transform="rotate(110.57656,-261.22662,254.58718)" /><use
             x="0"
             y="0"
             xlink:href="#g51"
             id="use57"
             transform="rotate(138.6372,-260.72097,253.60873)" /><use
             x="0"
             y="0"
             xlink:href="#use57"
             id="use58"
             transform="rotate(26.547783,-276.30263,238.26613)" /><use
             x="0"
             y="0"
             xlink:href="#g51"
             id="use59"
             transform="rotate(-166.14663,-261.99818,257.10081)" /><g
             id="g51-5"
             style="stroke:#ad6100;stroke-width:11.7;stroke-dasharray:none;stroke-opacity:1;paint-order:stroke fill markers"
             transform="matrix(0.87231898,0,0,0.87231898,-485.51061,73.832027)"><path
               fill="#cedce7"
               d="m 299.772,479.3537 c 8.985,-1.1659 21.993,1.3407 29.804,5.6631 19.48,10.7799 31.372,33.6569 29.192,55.8452 -1.153,11.738 -4.028,22.79041 -9.595,33.30341 -2.466,-2.382 -6.6478,-5.7084 -9.3948,-7.8834 L 327.019,554.346 c 7.604,-17.5949 3.067,-40.3685 -17.425,-45.6387 -16.4,-4.2176 -35.113,3.4951 -47.568,13.9737 -18.31012,19.67336 -36.68974,38.45309 -55.986,57.101 -6.01,-8.343 -9.981,-13.409 -15.082,-22.656 6.19621,-5.93636 14.08546,-11.64413 32.607,-28.7491 22.384,-20.3337 43.836,-46.3459 76.207,-49.0232 z"
               id="path8-6"
               sodipodi:nodetypes="cccccccccccc"
               style="stroke:#ad6100;stroke-width:11.7;stroke-dasharray:none;stroke-opacity:1;paint-order:stroke fill markers" /><path
               fill="#cedce7"
               d="M 362.69649,637.84889 C 337.71839,608.51934 308.31274,588.61464 259.129,533.2725 c 7.14,-6.6073 10.203,-9.0369 18.528,-14.0338 30.17391,28.88481 41.61402,35.10943 71.18119,64.67399"
               id="path16-2"
               sodipodi:nodetypes="cccc"
               style="stroke:#ad6100;stroke-width:11.7;stroke-dasharray:none;stroke-opacity:1;paint-order:stroke fill markers" /><path
               fill="#cedce7"
               d="m 148.48186,639.19195 28.22939,-34.38938 -8.99894,-30.35252 -5.13186,4.58186"
               id="path16-5-9"
               sodipodi:nodetypes="cccc"
               style="stroke:#ad6100;stroke-width:11.7;stroke-dasharray:none;stroke-opacity:1;paint-order:stroke fill markers" /><path
               fill="#cedce7"
               d="m 203.172,478.6013 c 14.969,-1.4213 35.698,7.3781 48.107,15.7389 -6.763,5.5845 -15.038,13.7122 -21.471,19.7756 -5.289,-2.6907 -10.745,-4.8146 -16.594,-5.8762 -16.927,-3.0727 -29.65,7.4878 -32.283,24.0081 -1.077,7.2137 -0.321,14.5823 2.198,21.4273 11.34171,31.41197 63.72206,76.59226 72.529,89.222 13.55585,-13.55184 36.04788,-36.03942 48.87347,-53.77094 l 19.88415,18.32716 c -23.98565,33.47607 -51.49314,55.99602 -68.00862,74.08578 -5.49161,-4.9984 -81.77687,-74.97781 -99.873,-121.422 -1.958,-5.054 -3.228,-10.349 -3.775,-15.742 -1.774,-16.0389 2.494,-32.8958 12.722,-45.5131 9.399,-11.4606 22.947,-18.7429 37.691,-20.2606 z"
               id="path4-1"
               sodipodi:nodetypes="cccccccccccccc"
               style="stroke:#ad6100;stroke-width:11.7;stroke-dasharray:none;stroke-opacity:1;paint-order:stroke fill markers" /></g><use
             x="0"
             y="0"
             xlink:href="#g51"
             id="use60"
             transform="rotate(-138.30981,-261.06717,256.84633)" /><use
             x="0"
             y="0"
             xlink:href="#g51"
             id="use61"
             transform="rotate(-111.01762,-262.78743,255.5265)" /><use
             x="0"
             y="0"
             xlink:href="#g51"
             id="use63"
             transform="rotate(-83.116235,-262.6023,256.59121)" /><use
             x="0"
             y="0"
             xlink:href="#g51"
             id="use64" /><use
             x="0"
             y="0"
             xlink:href="#use63"
             id="use65"
             transform="rotate(28.778401,-280.80257,253.84585)" /><use
             x="0"
             y="0"
             xlink:href="#use64"
             id="use66"
             transform="rotate(-27.116203,-253.86564,263.94449)" /><use
             x="0"
             y="0"
             xlink:href="#g51-5"
             id="use71"
             transform="rotate(-28.277891,-265.81238,261.17276)" /><use
             x="0"
             y="0"
             xlink:href="#g51-5"
             id="use72"
             transform="rotate(-51.625939,-265.08575,222.29371)" /><use
             x="0"
             y="0"
             xlink:href="#g51-5"
             id="use73"
             transform="rotate(-83.083366,-255.95878,250.48037)" /><use
             x="0"
             y="0"
             xlink:href="#g51-5"
             id="use74"
             transform="rotate(-112.12281,-258.86226,254.49234)" /><use
             x="0"
             y="0"
             xlink:href="#g51-5"
             id="use75"
             transform="rotate(-138.21803,-262.5509,249.98947)" /><use
             x="0"
             y="0"
             xlink:href="#g51-5"
             id="use76"
             transform="rotate(-166.32152,-261.39451,252.73174)" /><use
             x="0"
             y="0"
             xlink:href="#g51-5"
             id="use77"
             transform="rotate(167.19065,-265.32242,254.61213)" /><use
             x="0"
             y="0"
             xlink:href="#g51-5"
             id="use78"
             transform="rotate(141.94823,-272.03617,256.90661)" /><use
             x="0"
             y="0"
             xlink:href="#g51-5"
             id="use79"
             transform="rotate(111.50836,-265.89646,251.96892)" /><use
             x="0"
             y="0"
             xlink:href="#g51-5"
             id="use80"
             transform="rotate(79.672795,-247.77227,242.14873)" /><use
             x="0"
             y="0"
             xlink:href="#g51-5"
             id="use81"
             transform="rotate(56.849363,-264.59977,264.8144)" /><use
             x="0"
             y="0"
             xlink:href="#g51-5"
             id="use82"
             transform="rotate(31.838639,-278.67015,298.19322)" /></g><g
           id="g15"
           transform="matrix(1.4510713,0,0,1.4510713,-1186.641,-869.07432)"><path
             fill="#cedce7"
             d="m 551.94609,812.33827 c 0.18428,0.0629 3.78644,3.7383 4.22348,4.17105 4.95525,4.90524 10.62408,8.99204 15.39265,14.10188 1.25466,1.34453 2.57485,2.72864 3.66877,4.20476 -1.62537,1.88132 -2.74282,2.72088 -4.78489,4.04 l -0.92836,-0.92488 c -4.54122,-4.40616 -9.63742,-8.40229 -14.50013,-12.44951 -3.41922,-2.84552 -6.62875,-5.52895 -9.63421,-8.82113 2.20896,-1.43948 4.38663,-2.82974 6.56269,-4.32217 z"
             id="path17"
             style="stroke-width:0.267461" /><g
             id="g9"
             transform="matrix(-0.26746098,0,0,-0.26746098,862.93791,815.79404)"><path
               style="fill:none;fill-opacity:1;stroke:url(#linearGradient83);stroke-width:40;stroke-miterlimit:5.8;stroke-dasharray:none;paint-order:stroke fill markers"
               d="M 866.96748,34.061452 1034.9989,-130.0604 c 30.4215,-29.71369 72.0598,-43.70431 97.4501,-19.87015 38.0779,35.74419 5.6376,78.414422 5.6376,78.414422 l -92.2522,89.17718 -59.96401,-63.55156 c 0,0 -71.42139,-61.733022 -21.01302,-104.040042 28.7007,-24.08809 66.86383,-6.73653 87.63963,14.35035 l 171.1792,173.741742"
               id="use44"
               sodipodi:nodetypes="csscccssc" /><path
               style="fill:none;fill-opacity:1;stroke:url(#linearGradient84);stroke-width:42.7731;stroke-miterlimit:5.8;stroke-dasharray:none;paint-order:stroke fill markers"
               d="m 1039.6606,577.85781 251.1507,-2.95611 c 45.47,-0.5352 87.5327,-21.44041 88.7093,-58.66046 1.7646,-55.81907 -55.0286,-63.55421 -55.0286,-63.55421 l -137.1841,2.32516 2.7126,93.39368 c 0,0 -7.3256,100.68191 62.7792,94.55624 39.9151,-3.48772 55.6514,-45.46395 55.4162,-77.1176 l -1.9376,-260.80473"
               id="use45"
               sodipodi:nodetypes="csscccssc" /><path
               style="fill:none;fill-opacity:1;stroke:url(#linearGradient85);stroke-width:42.7731;stroke-miterlimit:5.8;stroke-dasharray:none;paint-order:stroke fill markers"
               d="m 1039.3561,43.635119 251.1507,2.956116 c 45.47,0.535188 87.5326,21.440399 88.7093,58.660455 1.7646,55.81907 -55.0287,63.5542 -55.0287,63.5542 l -137.1841,-2.32515 2.7127,-93.393676 c 0,0 -7.3256,-100.681919 62.7792,-94.556253 39.9151,3.487729 55.6513,45.463961 55.4162,77.117602 l -1.9376,260.804727"
               id="use46"
               sodipodi:nodetypes="csscccssc" /><path
               style="fill:none;fill-opacity:1;stroke:url(#linearGradient86);stroke-width:42.7731;stroke-miterlimit:5.8;stroke-dasharray:none;paint-order:stroke fill markers"
               d="m 770.94451,310.37585 2.95611,-251.150723 c 0.53519,-45.469956 21.4404,-87.532599 58.66046,-88.709249 55.81907,-1.764625 63.5542,55.028637 63.5542,55.028637 l -2.32516,137.184065 -93.39367,-2.71268 c 0,0 -100.68192,7.32566 -94.55625,-62.779144 3.48773,-39.915139 45.46396,-55.651334 77.1176,-55.416169 l 260.8048,1.937625"
               id="use47"
               sodipodi:nodetypes="csscccssc" /><path
               style="fill:none;fill-opacity:1;stroke:url(#linearGradient87);stroke-width:42.7731;stroke-miterlimit:5.8;stroke-dasharray:none;paint-order:stroke fill markers"
               d="m 1038.6757,577.85797 -251.15074,-2.95611 c -45.46995,-0.53519 -87.5326,-21.4404 -88.70924,-58.66046 -1.76463,-55.81906 55.02863,-63.5542 55.02863,-63.5542 l 137.18407,2.32516 -2.71269,93.39367 c 0,0 7.32566,100.68192 -62.77914,94.55625 -39.91514,-3.48773 -55.65133,-45.46396 -55.41617,-77.1176 l 1.93763,-260.80473"
               id="use48"
               sodipodi:nodetypes="csscccssc" /></g><use
             x="0"
             y="0"
             xlink:href="#use44"
             id="use90"
             transform="matrix(0.18912347,0.18912347,-0.18912347,0.18912347,470.61771,459.79234)" /><use
             x="0"
             y="0"
             xlink:href="#use44"
             id="use91"
             transform="matrix(0.26746098,0,0,0.26746098,303.92849,621.46782)" /><use
             x="0"
             y="0"
             xlink:href="#use44"
             id="use92"
             transform="matrix(0.18912347,-0.18912347,0.18912347,0.18912347,301.31052,852.76605)" /><use
             x="0"
             y="0"
             xlink:href="#use90"
             id="use93"
             transform="matrix(0.99999999,0,0,-0.99999999,7.75994e-6,1478.8406)" /><use
             x="0"
             y="0"
             xlink:href="#use91"
             id="use94"
             transform="matrix(0.99999999,0,0,-0.99999999,7.75994e-6,1478.8406)" /><use
             x="0"
             y="0"
             xlink:href="#use92"
             id="use95"
             transform="matrix(0.99999999,0,0,-0.99999999,7.75994e-6,1478.8406)" /><use
             x="0"
             y="0"
             xlink:href="#use44"
             id="use96"
             transform="matrix(0,-0.26746098,0.26746098,0,463.53454,1018.907)" /><use
             x="0"
             y="0"
             xlink:href="#use44"
             id="use97"
             transform="matrix(0,0.26746098,-0.26746098,0,703.01894,461.25305)" /></g></g></g><text
       xml:space="preserve"
       style="font-size:373.964px;line-height:1;font-family:'Bewilder Thick BRK';-inkscape-font-specification:'Bewilder Thick BRK, Normal';text-align:center;letter-spacing:-1.35738px;word-spacing:-93.2601px;writing-mode:lr-tb;direction:ltr;text-anchor:middle;fill:#7d3301;stroke:#ecff3b;stroke-width:19.5;stroke-linecap:round;stroke-linejoin:round;stroke-miterlimit:5.8;stroke-dasharray:none;paint-order:fill markers stroke"
       x="900.99207"
       y="219.61613"
       id="text1"><tspan
         sodipodi:role="line"
         id="tspan1"
         x="900.99207"
         y="219.61613"
         style="font-style:normal;font-variant:normal;font-weight:normal;font-stretch:normal;font-size:373.964px;font-family:Aghitta;-inkscape-font-specification:'Aghitta, Normal';font-variant-ligatures:normal;font-variant-caps:normal;font-variant-numeric:normal;font-variant-east-asian:normal;letter-spacing:-1.35738px;word-spacing:-93.2601px;fill:#1608fd;fill-opacity:1;stroke:#e4ff10;stroke-width:19.5;stroke-dasharray:none;stroke-opacity:0.672943;paint-order:stroke fill markers"
         dy="-79.832657"
         dx="-1.9163032">Welome</tspan><tspan
         sodipodi:role="line"
         x="900.31335"
         y="597.05103"
         style="font-style:normal;font-variant:normal;font-weight:normal;font-stretch:normal;font-size:373.964px;font-family:Aghitta;-inkscape-font-specification:'Aghitta, Normal';font-variant-ligatures:normal;font-variant-caps:normal;font-variant-numeric:normal;font-variant-east-asian:normal;letter-spacing:-1.35738px;word-spacing:-93.2601px;fill:#1608fd;fill-opacity:1;stroke:#e4ff10;stroke-width:19.5;stroke-dasharray:none;stroke-opacity:0.672943;paint-order:stroke fill markers"
         id="tspan6">to</tspan></text><text
       xml:space="preserve"
       style="font-style:normal;font-variant:normal;font-weight:normal;font-stretch:normal;font-size:500px;line-height:1;font-family:Aghitta;-inkscape-font-specification:'Aghitta, Normal';font-variant-ligatures:normal;font-variant-caps:normal;font-variant-numeric:normal;font-variant-east-asian:normal;text-align:center;letter-spacing:60px;word-spacing:-84.7038px;writing-mode:lr-tb;direction:ltr;text-anchor:middle;fill:#1608fd;fill-opacity:1;stroke:#e4ff10;stroke-width:17.7109;stroke-linecap:round;stroke-linejoin:round;stroke-miterlimit:5.8;stroke-dasharray:none;stroke-opacity:0.672943;paint-order:stroke fill markers"
       id="text7"><textPath
         xlink:href="#path18"
         startOffset="50%"
         id="textPath18"
         style="font-size:500px;letter-spacing:60px"><tspan
           id="tspan7"
           style="font-style:normal;font-variant:normal;font-weight:normal;font-stretch:normal;font-size:500px;font-family:Alanon;-inkscape-font-specification:'Alanon, Normal';font-variant-ligatures:normal;font-variant-caps:normal;font-variant-numeric:normal;font-variant-east-asian:normal;letter-spacing:60px;stroke-width:17.7109"
           dx="23.07">Gaianism</tspan></textPath></text><path
       style="fill:none;fill-opacity:1;stroke:#e4ff10;stroke-width:14.6532;stroke-linecap:round;stroke-linejoin:round;stroke-miterlimit:5.8;stroke-dasharray:none;stroke-opacity:0.0209201;paint-order:stroke fill markers"
       d="m 14.892397,405.63404 c 12.490879,269.24421 90.885143,459.4498 211.985153,562.61239 147.31406,125.49377 422.83482,157.97807 602.04289,77.37567 59.50761,-26.7647 162.64251,-44.2954 223.04006,-114.39449 117.9541,-136.90088 184.6704,-368.4179 227.9532,-519.11068"
       id="path18"
       sodipodi:nodetypes="csssc" /></g></svg>
